# xmcd CD database file
#
# Track frame offsets:
#	183
#	15255
#	28128
#	41660
#	55915
#	68573
#	81260
#	97518
#	113665
#	131230
#	147108
#	155568
#	164215
#	182720
#	200870
#	217543
#	234693
#	249600
#	263843
#	280513
#
# Disc length: 3927 seconds
#
# Revision: 0
# Processed by: cddbd v1.5PL3 Copyright (c) Steve Scherf et al.
# Submitted via: CDex 1.51
#
DISCID=150f5514
DTITLE=Eric Gemsa - Blues Rags and Boogies
DYEAR=1990
DGENRE=Blues
TTITLE0=The Entertainer
TTITLE1=Mapple Leaf Rag
TTITLE2=Saint Louis Blues
TTITLE3=Saint James Infirmary
TTITLE4=Yancey Special
TTITLE5=Honky Tonk Train Blues
TTITLE6=Summertime
TTITLE7=On The Sunny Side Of The Street
TTITLE8=Original Rag
TTITLE9=Something Doing
TTITLE10=Pinetop Boogie
TTITLE11=Fanny's Boogie
TTITLE12=Lover Man
TTITLE13=Nobody Knows
TTITLE14=Over The Rainbow
TTITLE15=After You've Gone
TTITLE16=Blues In New Orleans
TTITLE17=Elite Syncopations
TTITLE18=Sunflower Slow Drag
TTITLE19=Nashville Blues
EXTD=YEAR: 1990
EXTT0=
EXTT1=
EXTT2=
EXTT3=
EXTT4=
EXTT5=
EXTT6=
EXTT7=
EXTT8=
EXTT9=
EXTT10=
EXTT11=
EXTT12=
EXTT13=
EXTT14=
EXTT15=
EXTT16=
EXTT17=
EXTT18=
EXTT19=
PLAYORDER=
